<?xml version="1.0" encoding="utf-8"?>
<!-- Generator: Adobe Illustrator 24.2.0, SVG Export Plug-In . SVG Version: 6.00 Build 0)  -->
<svg version="1.1" id="Layer_1" xmlns="http://www.w3.org/2000/svg" xmlns:xlink="http://www.w3.org/1999/xlink" x="0px" y="0px"
	 viewBox="0 0 242 340" style="enable-background:new 0 0 242 340;" xml:space="preserve">
<style type="text/css">
	.st0{fill:#FFFFFF;}
	.st1{fill:#0C0C0C;}
</style>
<g>
	<path class="st1" d="M131.75,8.56c-34.39,0-58.38,14-71.97,40.79c-1.2,2.39-2,3.2-3.99,3.2c-1.33,0-2.41-1.07-2.41-2.4l0-35.59
		l-35.99,0l0.01,182.02c0.02,24.61,8.33,40.69,17.48,52.7c3.43,4.5,7.25,8.69,11.31,12.63l16.5,16
		c9.48,8.32,11.52,10.47,20.55,15.78c5.24,3.08,1.81,8.81-1.91,8.24c0,0-13.62-2.21-28.48-2.21l-41.37,0l0,31.62l62.52,0
		c15.34,0,29.59-10.34,34.48-24.56c2.59-7.53,5.78-24.21-9.52-39.51l-32.76-32.51c-13.52-15.43-12.81-28.04-12.81-38.18l0-9.69
		c0-1.33,1.08-2.4,2.41-2.4c1.99,0,2.79,0.81,3.99,3.2c13.6,26.79,37.59,40.78,71.98,40.78c49.58,0,99.56-35.99,99.55-109.96
		S181.33,8.56,131.75,8.56z M123.08,196.58c-41.98,0-71.97-27.98-71.98-77.96c0-49.98,29.98-77.97,71.96-77.97
		c41.99,0,71.98,27.98,71.98,77.96S165.07,196.58,123.08,196.58z"/>
</g>
</svg>
