<?xml version="1.0" encoding="UTF-8"?>
<svg id="Layer_1" xmlns="http://www.w3.org/2000/svg" version="1.1" viewBox="0 0 1642 416">
  <!-- Generator: Adobe Illustrator 29.8.1, SVG Export Plug-In . SVG Version: 2.1.1 Build 2)  -->
  <defs>
    <style>
      .st0 {
        fill: #fff;
      }
    </style>
  </defs>
  <path class="st0" d="M1600.9,5.3c19.4,0,35,14.3,35,35.3s-15.6,35-35,35-35.1-14.2-35.1-35,15.6-35.3,35.1-35.3ZM1600.9,69.3c16.1,0,28.1-11.5,28.1-28.7s-12-29-28.1-29-28.2,11.6-28.2,29c0,17.2,12.4,28.7,28.2,28.7ZM1602.1,43.7h-7.1v14.2h-7.7V20.5h11.4c10.9,0,17.6,2,17.6,11.6s-2,7.8-6.7,9.9l8.6,15.8h-8.5l-7.6-14.2ZM1599.9,26.6h-5v11.1h5.4c5.9,0,8.2-1.9,8.2-5.5,0-4.5-3.5-5.6-8.7-5.6Z"/>
  <path class="st0" d="M131.8,84.6c-34.4,0-58.4,14-72,40.8-1.2,2.4-2,3.2-4,3.2s-2.4-1.1-2.4-2.4v-35.6H17.4v182c0,24.6,8.3,40.7,17.5,52.7,3.4,4.5,7.2,8.7,11.3,12.6l16.5,16c9.5,8.3,11.5,10.5,20.5,15.8,5.2,3.1,1.8,8.8-1.9,8.2,0,0-13.6-2.2-28.5-2.2H11.5v31.6h62.5c15.3,0,29.6-10.3,34.5-24.6,2.6-7.5,5.8-24.2-9.5-39.5l-32.8-32.5c-13.5-15.4-12.8-28-12.8-38.2v-9.7c0-1.3,1.1-2.4,2.4-2.4,2,0,2.8.8,4,3.2,13.6,26.8,37.6,40.8,72,40.8,49.6,0,99.6-36,99.6-110s-50-110-99.6-110ZM123.1,272.6c-42,0-72-28-72-78,0-50,30-78,72-78s72,28,72,78-30,78-72,78Z"/>
  <path class="st0" d="M358.6,84.7c66,0,98,46,98,96v24h-165.9c2.8,40.8,28.8,68,72,68s52.4-17.2,60-40h38c-8,31.2-33.6,72-98,72s-110-42-110-110,42-110,106-110ZM416.6,174.6c0-34-16-58-58-58s-62.4,20.4-67.6,58h125.6Z"/>
  <path class="st0" d="M577.9,84.7c34.4,0,58.4,14,72,40.8,1.2,2.4,2,3.2,4,3.2s2.4-.8,2.4-2.4V10.7h36v287.9h-36v-35.6c0-1.6-.8-2.4-2.4-2.4s-2.8.8-4,3.2c-13.6,26.8-37.6,40.8-72,40.8-49.6,0-99.6-36-99.6-110s50-109.9,99.6-109.9ZM586.3,272.6c42,0,72-28,72-78s-30-78-72-78-72,28-72,78,30,78,72,78Z"/>
  <path class="st0" d="M823.8,84.7c66,0,98,46,98,96v24h-165.9c2.8,40.8,28.8,68,72,68s52.4-17.2,60-40h38c-8,31.2-33.6,72-98,72s-110-42-110-110,42-110,106-110ZM881.8,174.6c0-34-16-58-58-58s-62.4,20.4-67.6,58h125.5Z"/>
  <path class="st0" d="M1164.4,34.7h36v56h54v32h-54v98c0,28-2,38-2,42s.4,3.2,1.6,4.4c1.2,1.2,2.4,1.6,4.4,1.6,4,0,14-2,42-2h14v32h-28c-46,0-68-22-68-68V34.7Z"/>
  <path class="st0" d="M1354.3,176.6l76-1.6v-8.4c0-30-16-50-56-50s-52,18-52,40h-38c2-40,34-72,90-72s92,32,92,84v130h-36v-31.6c0-1.6-.8-2.4-2.4-2.4s-2.8.4-4,2.8c-10,21.2-30,37.2-65.6,37.2s-80-28-80-68c0-36,24-58.8,76-60ZM1364.3,272.6c40,0,66-22,66-66v-1.6l-76,1.6c-28,.4-40,12-40,30,0,22,18,36,50,36Z"/>
  <path class="st0" d="M1537.8,10.7v287.9h-36V10.7h36Z"/>
  <path class="st0" d="M1069.3,182.2l-38-8c-25.6-5.2-38-10-38-26.4s16.8-31.2,48-31.2,54,14,56,40h38c-2-44-39.6-72-92-72s-86,24-86,64,24.8,50.4,58,57.2l38,8c30,6.4,44,8.8,44,26.8s-16,32-53.2,32-59.5-17-65.5-40h-38.2c8.3,41,40,72,103.7,72s89.2-27.2,89.2-66-29.6-49.2-64-56.4Z"/>
</svg>